<?xml version="1.0" encoding="UTF-8"?>
<svg id="Layer_1" data-name="Layer 1" xmlns="http://www.w3.org/2000/svg" viewBox="0 0 630.40002 81">
  <path d="M.2.5h17.3l10.1,32c2.4,7.7,4.3,14.2,5.4,19h0c1.2-4.7,3.5-12.7,5.3-18.9L48.4.5h17.2v62.3h-10.5V26.2c0-2.2.2-10.4.4-15.8h-.2c-2,7.1-4,13.8-5,16.8l-11.6,35.6h-11.9L15.3,27c-1-3-3.2-10.7-5-16.6h-.2c0,5.4.4,13.9.4,16v36.4H0V.5h.2Z" fill="#fff"/>
  <path d="M74.4,50.5c0-9.5,7.9-12.2,16-13.7l13.3-2.5c0-2.9,0-5.1-1.2-6.9-1.2-1.7-3.5-2.5-7.1-2.5-6.1,0-9,2.1-9.1,8.4l-10.3-1.3c.3-5.3,2.2-9,5.6-11.3,3.3-2.3,8.2-3.5,14.4-3.5,11.5,0,18,5,18,14.7v22.9c0,2.9.6,5.5,1.5,7.7v.4h-10.6c-.4-1.7-.6-3.6-.6-6.3-2.3,4.4-7.1,7.4-14.4,7.4s-15.4-4.4-15.4-13.4l-.10001-.10001ZM92.1,56.1c7.6,0,11.7-3.8,11.7-10.4v-4.2l-11.6,2.5c-4.1,1-6.9,2.3-6.9,6.4s3,5.7,6.9,5.7h-.1Z" fill="#fff"/>
  <path d="M123.1,66.1l10.2-.7c.39999,6,4.10001,7.9,10.10001,7.9s10.5-3.9,10.5-11.2v-6.9c-2.8,4.8-7.10001,7.3-13.2,7.3-12,0-20-9.2-20-23.1s8.2-22.2,19.8-22.2,10.60001,2.6,13.39999,6.9v-5.9h10.5v43.7c0,12.2-8.3,19-21.5,19s-19.4-4-19.9-15c0,0,.1.2.09999.2ZM143.3,54.6c3.39999,0,5.89999-1.1,7.7-3,2.39999-2.8,3.5-7.1,3.5-12.2,0-9.2-3.60001-14.3-10.89999-14.3s-6.39999,1.1-8.2,3.1c-2.10001,2.4-2.89999,6.1-2.89999,11.2,0,10.2,2.7,15.2,10.89999,15.2h-.10001Z" fill="#fff"/>
  <path d="M174.39999,18.3h10.60001v6c3.10001-4.7,7.89999-7,13.39999-7,11.5,0,19.89999,8.8,19.89999,23.3s-8.10001,23.3-19.7,23.3-10.3-2.1-13.7-6.5v23.2h-10.60001V18.3h.10001ZM195.60001,56c3.39999,0,6-.9,7.7-2.6,2.60001-2.5,3.60001-6.9,3.60001-13,0-10.2-2.7-15.5-11.10001-15.5s-6.2,1.2-8.10001,3.6c-2,2.6-2.89999,6.7-2.89999,11.8,0,9,2.2,15.7,10.89999,15.7h-.10001.00002Z" fill="#fff"/>
  <path d="M225.8,18.3h10.60001v44.5h-10.60001V18.3ZM225.89999,0h10.5v11.4h-10.5V0Z" fill="#fff"/>
  <path d="M249.7,57.7c-4.10001-4.2-6-10.1-6-17.3s2-12.7,6-17c3.89999-4.1,9.3-6.2,16.00002-6.2s13,2.7,16.70001,7.4c3.60001,4.5,5.29999,11.2,5.10001,18.9h-33.10001c.2,8.3,3.89999,12.5,11.29999,12.5s9.89999-2.8,10.89999-8.2l10.20001.8c-2.29999,10.2-9.60001,15.3-21,15.3s-12.3-2.2-16.10001-6.1v-.1h-.00002ZM276.79999,35.6c-.20001-2.5-1-5.1-2.5-6.9-2-2.4-4.60001-3.5-8.5-3.5s-7.20001,1.4-9,3.9c-1.39999,2-2,4.4-2.2,6.5h22.3-.10001Z" fill="#fff"/>
  <path d="M314.10001.5h22.20001c11.5,0,25.5,1.9,25.5,19.3s-13.89999,19.1-25.5,19.1h-10.89999v23.9h-11.10001V.5h-.20001ZM336,30c7.29999,0,14.60001-.4,14.60001-10.2s-7.29999-10.3-14.5-10.3h-10.89999v20.6h10.79999s0-.1,0-.1Z" fill="#fff"/>
  <path d="M368.20001,18.3h10.5v8c1.39999-4.6,5.89999-8.5,13.10001-9h3.10001l-.29999,9.6h-2.20001c-8.39999,0-13.60001,3.4-13.60001,15.7v20.4h-10.60001V18.3Z" fill="#fff"/>
  <path d="M396.20001,40.5c0-13.5,8.60001-23.3,22.79999-23.3s22.60001,9.9,22.60001,23.3-8.89999,23.3-22.60001,23.3-22.79999-8.8-22.79999-23.3ZM410.79999,53.1c1.79999,2,4.5,3,8.20001,3s6.5-1.1,8.29999-3.2c2.10001-2.6,3-6.7,3-12.4s-1-9.8-3.10001-12.4c-1.79999-2.1-4.5-3.2-8.20001-3.2s-6.39999,1-8.20001,3c-2.29999,2.5-3.29999,6.7-3.29999,12.6s1,10.1,3.29999,12.6h.00003Z" fill="#fff"/>
  <path d="M442.79999,71.2c1.20001.3,2.5.4,3.60001.4,2.10001,0,3-1.4,3-4.9V18.3h10.60001v49.9c0,8.3-4,12.8-12.60001,12.8s-3.29999-.2-4.79999-.5l.20001-9.3h-.00003ZM449.39999,0h10.60001v11.4h-10.60001V0Z" fill="#fff"/>
  <path d="M473.39999,57.7c-4.10001-4.2-6-10.1-6-17.3s2-12.7,6-17c3.89999-4.1,9.29999-6.2,16-6.2s13,2.7,16.70001,7.4c3.60001,4.5,5.29999,11.2,5.10001,18.9h-33.10001c.20001,8.3,3.89999,12.5,11.29999,12.5s9.89999-2.8,10.89999-8.2l10.20001.8c-2.29999,10.2-9.60001,15.3-21,15.3s-12.29999-2.2-16.10001-6.1v-.1ZM500.39999,35.6c-.20001-2.5-1-5.1-2.5-6.9-2-2.4-4.60001-3.5-8.5-3.5s-7.20001,1.4-9,3.9c-1.39999,2-2,4.4-2.20001,6.5h22.29999-.10001.00003Z" fill="#fff"/>
  <path d="M516.09998,40.5c0-13.7,8.29999-23.3,22.5-23.3s18.20001,6.7,19.90002,15.8l-9.90002,1.8c-1.20001-5-3.29999-9.5-10.09998-9.5s-6.79999,1.2-8.5,3.5c-2,2.7-2.59998,6.8-2.59998,11.8,0,9.6,2.20001,15.3,11,15.3s8.59998-2.8,10.09998-8.3l10.09998,1.1c-1.5,9-9.09998,15.2-20.20001,15.2s-22.5-8.7-22.5-23.3l.20001-.1Z" fill="#fff"/>
  <path d="M568.20001,51.6v-24.8h-6.40002v-8.5h6.40002V5.9h10.40002v12.4h9.09998v8.5h-9.09998v23.9c0,2.7,1.40002,3.3,4.59998,3.3s2.70001-.2,4.09998-.4l.20001,9.2c-1.70001.4-3.90002.5-5.90002.5-8.5,0-13.40002-3.3-13.40002-11.7h.00006Z" fill="#fff"/>
  <path d="M591.5,48.6l9.90002-1.2c0,5.8,4.09998,8.8,10,8.8s9.09998-2.1,9.09998-5.9-5.5-4.6-12.20001-6.3c-7.90002-2-15.5-4.5-15.5-13.5s8.59998-13.4,17.5-13.4,18,3.6,19,14.2l-9.70001,1.6c-.29999-5.5-3.59998-8.2-9.29999-8.2s-7.59998,1.5-7.59998,5,4.09998,4.5,9.79999,5.8c8.40002,1.9,17.90002,3.7,17.90002,14.2s-9.29999,14.1-19.09998,14.1-19.40002-4.5-19.79999-15.2h-.00006Z" fill="#fff"/>
</svg>